<svg width="24" height="24" viewBox="0 0 24 24" fill="none" xmlns="http://www.w3.org/2000/svg">
<path d="M12 0C18.6274 0 24 5.37258 24 12C24 18.6274 18.6274 24 12 24C5.37258 24 0 18.6274 0 12C0 5.37258 5.37258 0 12 0Z" fill="#646369"/>
<g clip-path="url(#clip0_1383_542)">
<path d="M11.9997 5.8335C12.56 5.8335 13.108 5.99976 13.5739 6.31104C14.0398 6.62237 14.4034 7.0648 14.6178 7.58252C14.8322 8.10013 14.8882 8.66974 14.779 9.21924C14.6696 9.76885 14.3998 10.2742 14.0036 10.6704C13.6073 11.0667 13.102 11.3365 12.5524 11.4458C12.0029 11.555 11.4333 11.4991 10.9157 11.2847C10.398 11.0702 9.95553 10.7067 9.6442 10.2407C9.33503 9.77797 9.16889 9.23458 9.16666 8.67822L9.16959 8.54346C9.20137 7.8142 9.51347 7.12547 10.0407 6.62061C10.5022 6.17867 11.0973 5.90701 11.7282 5.84619L11.9997 5.8335Z" fill="white" stroke="white"/>
<path d="M13.3333 13.3335C14.2174 13.3335 15.0652 13.6847 15.6904 14.3098C16.3155 14.9349 16.6667 15.7828 16.6667 16.6668V17.3335C16.6667 17.6871 16.5262 18.0263 16.2762 18.2763C16.0261 18.5264 15.687 18.6668 15.3333 18.6668H8.66668C8.31305 18.6668 7.97392 18.5264 7.72387 18.2763C7.47382 18.0263 7.33334 17.6871 7.33334 17.3335V16.6668C7.33334 15.7828 7.68453 14.9349 8.30965 14.3098C8.93478 13.6847 9.78262 13.3335 10.6667 13.3335H13.3333Z" fill="white"/>
</g>
<defs>
<clipPath id="clip0_1383_542">
<rect width="16" height="16" fill="white" transform="translate(4 4)"/>
</clipPath>
</defs>
</svg>
