<svg width="24" height="24" viewBox="0 0 24 24" fill="none" xmlns="http://www.w3.org/2000/svg">
<path d="M12 0C18.6274 0 24 5.37258 24 12C24 18.6274 18.6274 24 12 24C5.37258 24 0 18.6274 0 12C0 5.37258 5.37258 0 12 0Z" fill="#646369"/>
<g clip-path="url(#clip0_1134_296)">
<path d="M11.9997 5.83325C12.56 5.83325 13.108 5.99952 13.5739 6.31079C14.0398 6.62212 14.4034 7.06455 14.6178 7.58228C14.8322 8.09988 14.8882 8.6695 14.779 9.21899C14.6696 9.76861 14.3998 10.2739 14.0036 10.6702C13.6073 11.0664 13.102 11.3362 12.5524 11.4456C12.0029 11.5548 11.4333 11.4988 10.9157 11.2844C10.398 11.07 9.95553 10.7064 9.6442 10.2405C9.33503 9.77773 9.16889 9.23433 9.16666 8.67798L9.16959 8.54321C9.20137 7.81395 9.51347 7.12523 10.0407 6.62036C10.5022 6.17842 11.0973 5.90676 11.7282 5.84595L11.9997 5.83325Z" fill="white" stroke="white"/>
<path d="M13.3333 13.3333C14.2174 13.3333 15.0652 13.6844 15.6904 14.3096C16.3155 14.9347 16.6667 15.7825 16.6667 16.6666V17.3333C16.6667 17.6869 16.5262 18.026 16.2762 18.2761C16.0261 18.5261 15.687 18.6666 15.3333 18.6666H8.66668C8.31305 18.6666 7.97392 18.5261 7.72387 18.2761C7.47382 18.026 7.33334 17.6869 7.33334 17.3333V16.6666C7.33334 15.7825 7.68453 14.9347 8.30965 14.3096C8.93478 13.6844 9.78262 13.3333 10.6667 13.3333H13.3333Z" fill="white"/>
</g>
<defs>
<clipPath id="clip0_1134_296">
<rect width="16" height="16" fill="white" transform="translate(4 4)"/>
</clipPath>
</defs>
</svg>
