<svg width="24" height="24" viewBox="0 0 24 24" fill="none" xmlns="http://www.w3.org/2000/svg">
<circle cx="12" cy="12" r="12" fill="#646369"/>
<g clip-path="url(#clip0_99_434)">
<path d="M11.9995 5.83398C12.5598 5.83398 13.1078 6.00025 13.5737 6.31152C14.0397 6.62285 14.4032 7.06528 14.6177 7.58301C14.8321 8.10061 14.888 8.67023 14.7788 9.21973C14.6695 9.76934 14.3997 10.2746 14.0034 10.6709C13.6072 11.0671 13.1019 11.337 12.5522 11.4463C12.0028 11.5555 11.4331 11.4995 10.9155 11.2852C10.3978 11.0707 9.95537 10.7072 9.64404 10.2412C9.33488 9.77846 9.16874 9.23507 9.1665 8.67871L9.16943 8.54395C9.20122 7.81469 9.51332 7.12596 10.0405 6.62109C10.5021 6.17916 11.0972 5.9075 11.728 5.84668L11.9995 5.83398Z" fill="white" stroke="white"/>
<path d="M13.3335 13.334C14.2176 13.334 15.0654 13.6852 15.6905 14.3103C16.3156 14.9354 16.6668 15.7833 16.6668 16.6673V17.334C16.6668 17.6876 16.5264 18.0267 16.2763 18.2768C16.0263 18.5268 15.6871 18.6673 15.3335 18.6673H8.66683C8.31321 18.6673 7.97407 18.5268 7.72402 18.2768C7.47397 18.0267 7.3335 17.6876 7.3335 17.334V16.6673C7.3335 15.7833 7.68469 14.9354 8.30981 14.3103C8.93493 13.6852 9.78277 13.334 10.6668 13.334H13.3335Z" fill="white"/>
</g>
<defs>
<clipPath id="clip0_99_434">
<rect width="16" height="16" fill="white" transform="translate(4 4)"/>
</clipPath>
</defs>
</svg>
