<svg width="28" height="28" viewBox="0 0 28 28" fill="none" xmlns="http://www.w3.org/2000/svg">
<g clip-path="url(#clip0_304_605)">
<path d="M11.6667 5.33333C11.6667 4.71449 11.9125 4.121 12.3501 3.68342C12.7877 3.24583 13.3812 3 14 3C14.6188 3 15.2123 3.24583 15.6499 3.68342C16.0875 4.121 16.3333 4.71449 16.3333 5.33333C17.6731 5.96687 18.8153 6.95305 19.6374 8.18618C20.4595 9.41932 20.9305 10.8529 21 12.3333V15.8333C21.0878 16.5587 21.3447 17.2532 21.7499 17.8611C22.1552 18.4691 22.6976 18.9733 23.3333 19.3333H4.66666C5.30242 18.9733 5.84477 18.4691 6.25004 17.8611C6.65532 17.2532 6.91219 16.5587 6.99999 15.8333V12.3333C7.06948 10.8529 7.54051 9.41932 8.3626 8.18618C9.18469 6.95305 10.3268 5.96687 11.6667 5.33333Z" stroke="#646369" stroke-width="1.5" stroke-linecap="round" stroke-linejoin="round"/>
<path d="M10.5 19.8333V20.9999C10.5 21.9282 10.8687 22.8184 11.5251 23.4748C12.1815 24.1312 13.0717 24.4999 14 24.4999C14.9283 24.4999 15.8185 24.1312 16.4749 23.4748C17.1313 22.8184 17.5 21.9282 17.5 20.9999V19.8333" stroke="#646369" stroke-width="1.5" stroke-linecap="round" stroke-linejoin="round"/>
</g>
<defs>
<clipPath id="clip0_304_605">
<rect width="28" height="28" fill="white"/>
</clipPath>
</defs>
</svg>
