<svg width="24" height="24" viewBox="0 0 24 24" fill="none" xmlns="http://www.w3.org/2000/svg">
<g clip-path="url(#clip0_1111_1415)">
<path d="M15 6C15 6.53043 15.2107 7.03914 15.5858 7.41421C15.9609 7.78929 16.4696 8 17 8C17.5304 8 18.0391 7.78929 18.4142 7.41421C18.7893 7.03914 19 6.53043 19 6C19 5.46957 18.7893 4.96086 18.4142 4.58579C18.0391 4.21071 17.5304 4 17 4C16.4696 4 15.9609 4.21071 15.5858 4.58579C15.2107 4.96086 15 5.46957 15 6Z" stroke="black" stroke-width="2" stroke-linecap="round" stroke-linejoin="round"/>
<path d="M9.00004 11C8.14163 10.9852 7.29386 11.1916 6.53837 11.5994C5.78289 12.0073 5.14515 12.6028 4.68657 13.3286C4.228 14.0544 3.96404 14.8861 3.92012 15.7435C3.8762 16.6009 4.05381 17.4552 4.43582 18.2241C4.81784 18.9929 5.3914 19.6505 6.10126 20.1334C6.81112 20.6163 7.63336 20.9083 8.4888 20.9812C9.34424 21.0541 10.204 20.9056 10.9854 20.5498C11.7668 20.1941 12.4434 19.6431 12.95 18.95" stroke="black" stroke-width="2" stroke-linecap="round" stroke-linejoin="round"/>
<path d="M19 20L15 15H11L14 10L10 7L6 8" stroke="black" stroke-width="2" stroke-linecap="round" stroke-linejoin="round"/>
</g>
<defs>
<clipPath id="clip0_1111_1415">
<rect width="24" height="24" fill="white"/>
</clipPath>
</defs>
</svg>
