<svg width="24" height="24" viewBox="0 0 24 24" fill="none" xmlns="http://www.w3.org/2000/svg">
<g clip-path="url(#clip0_1134_291)">
<path d="M11.998 2L12.116 2.007L12.175 2.015L12.236 2.028L12.347 2.062C12.4237 2.09026 12.4965 2.12788 12.564 2.174L12.668 2.256L12.923 2.474C14.9403 4.14956 17.4898 5.0493 20.112 5.011L20.454 5.001C20.6776 4.9908 20.8981 5.05591 21.0803 5.1859C21.2625 5.31589 21.3959 5.50326 21.459 5.718C21.9504 7.38958 22.1008 9.14288 21.9012 10.8737C21.7016 12.6046 21.1561 14.2776 20.2971 15.7935C19.4382 17.3093 18.2833 18.6371 16.901 19.6978C15.5188 20.7585 13.9375 21.5305 12.251 21.968C12.0864 22.0107 11.9136 22.0107 11.749 21.968C10.0624 21.5306 8.48096 20.7587 7.09862 19.698C5.71628 18.6374 4.56127 17.3096 3.70221 15.7938C2.84315 14.2779 2.29759 12.6048 2.09793 10.8739C1.89827 9.14301 2.0486 7.38964 2.53999 5.718C2.6031 5.50326 2.73642 5.31589 2.91863 5.1859C3.10084 5.05591 3.32139 4.9908 3.54499 5.001C6.28245 5.12613 8.96805 4.22499 11.076 2.474L11.339 2.249L11.435 2.174C11.5024 2.12788 11.5753 2.09026 11.652 2.062L11.764 2.028C11.8032 2.01853 11.8429 2.01152 11.883 2.007L11.998 2ZM15.708 9.293C15.6151 9.20002 15.5048 9.12626 15.3834 9.07594C15.262 9.02562 15.1319 8.99971 15.0005 8.99971C14.8691 8.99971 14.7389 9.02562 14.6175 9.07594C14.4961 9.12626 14.3859 9.20002 14.293 9.293L11 12.585L9.70698 11.293L9.61299 11.21C9.41199 11.0546 9.15938 10.9815 8.90646 11.0056C8.65354 11.0297 8.41927 11.1492 8.25123 11.3397C8.0832 11.5303 7.994 11.7777 8.00176 12.0316C8.00951 12.2856 8.11364 12.527 8.29299 12.707L10.293 14.707L10.387 14.79C10.5794 14.9393 10.8196 15.0132 11.0627 14.9979C11.3057 14.9826 11.5348 14.8792 11.707 14.707L15.707 10.707L15.79 10.613C15.9392 10.4206 16.0132 10.1803 15.9979 9.93732C15.9826 9.69429 15.8792 9.46519 15.707 9.293H15.708Z" fill="#646369"/>
</g>
<defs>
<clipPath id="clip0_1134_291">
<rect width="24" height="24" fill="white"/>
</clipPath>
</defs>
</svg>
