<svg width="23" height="22" viewBox="0 0 23 22" fill="none" xmlns="http://www.w3.org/2000/svg">
<path d="M7 1C7.53043 1 8.03914 1.21071 8.41421 1.58579C8.78929 1.96086 9 2.46957 9 3V7C9 7.53043 8.78929 8.03914 8.41421 8.41421C8.03914 8.78929 7.53043 9 7 9H3C2.46957 9 1.96086 8.78929 1.58579 8.41421C1.21071 8.03914 1 7.53043 1 7V3C1 2.46957 1.21071 1.96086 1.58579 1.58579C1.96086 1.21071 2.46957 1 3 1H7Z" fill="#646369"/>
<g clip-path="url(#clip0_1134_282)">
<path d="M15.0588 1.83248C15.0695 1.87677 15.0905 1.9179 15.1202 1.95253C15.1498 1.98717 15.1872 2.01432 15.2293 2.03178C15.2714 2.04924 15.317 2.05652 15.3624 2.05303C15.4079 2.04953 15.4518 2.03537 15.4908 2.01167C16.4663 1.41769 17.5827 2.53366 16.9887 3.50924C16.965 3.54814 16.9509 3.59209 16.9473 3.6375C16.9438 3.68292 16.9511 3.72852 16.9685 3.77061C16.9859 3.8127 17.013 3.85008 17.0476 3.87973C17.0822 3.90938 17.1233 3.93044 17.1675 3.94123C18.2775 4.21042 18.2775 5.78918 17.1675 6.05877C17.1232 6.0695 17.0821 6.09054 17.0475 6.12016C17.0128 6.14979 16.9857 6.18717 16.9682 6.22926C16.9508 6.27136 16.9435 6.31698 16.947 6.36242C16.9505 6.40786 16.9646 6.45183 16.9883 6.49076C17.5823 7.46634 16.4663 8.58271 15.4908 7.98872C15.4519 7.96503 15.4079 7.95085 15.3625 7.94733C15.3171 7.94382 15.2715 7.95106 15.2294 7.96848C15.1873 7.9859 15.1499 8.01301 15.1203 8.04759C15.0906 8.08217 15.0696 8.12326 15.0588 8.16752C14.7896 9.27749 13.2108 9.27749 12.9412 8.16752C12.9305 8.12323 12.9095 8.08209 12.8798 8.04746C12.8502 8.01283 12.8128 7.98568 12.7707 7.96822C12.7286 7.95076 12.683 7.94348 12.6376 7.94697C12.5921 7.95047 12.5482 7.96463 12.5092 7.98832C11.5337 8.58231 10.4173 7.46634 11.0113 6.49076C11.035 6.45186 11.0491 6.40791 11.0527 6.3625C11.0562 6.31708 11.0489 6.27148 11.0315 6.22939C11.0141 6.1873 10.987 6.14991 10.9524 6.12027C10.9178 6.09062 10.8767 6.06955 10.8325 6.05877C9.72251 5.78958 9.72251 4.21082 10.8325 3.94123C10.8768 3.93049 10.9179 3.90946 10.9525 3.87984C10.9872 3.85021 11.0143 3.81283 11.0318 3.77074C11.0492 3.72864 11.0565 3.68302 11.053 3.63758C11.0495 3.59214 11.0354 3.54817 11.0117 3.50924C10.4177 2.53366 11.5337 1.41729 12.5092 2.01127C12.5481 2.03515 12.5921 2.04947 12.6375 2.05308C12.683 2.05669 12.7287 2.04948 12.7708 2.03203C12.813 2.01459 12.8504 1.98741 12.88 1.95273C12.9096 1.91804 12.9306 1.87683 12.9412 1.83248C13.2104 0.722507 14.7892 0.722507 15.0588 1.83248ZM14 3.80003C13.6817 3.80003 13.3765 3.92645 13.1515 4.15149C12.9265 4.37653 12.8 4.68175 12.8 5C12.8 5.31825 12.9265 5.62347 13.1515 5.84851C13.3765 6.07354 13.6817 6.19997 14 6.19997C14.3183 6.19997 14.6235 6.07354 14.8485 5.84851C15.0735 5.62347 15.2 5.31825 15.2 5C15.2 4.68175 15.0735 4.37653 14.8485 4.15149C14.6235 3.92645 14.3183 3.80003 14 3.80003Z" fill="#646369"/>
</g>
<path d="M7 12C7.53043 12 8.03914 12.2107 8.41421 12.5858C8.78929 12.9609 9 13.4696 9 14V18C9 18.5304 8.78929 19.0391 8.41421 19.4142C8.03914 19.7893 7.53043 20 7 20H3C2.46957 20 1.96086 19.7893 1.58579 19.4142C1.21071 19.0391 1 18.5304 1 18V14C1 13.4696 1.21071 12.9609 1.58579 12.5858C1.96086 12.2107 2.46957 12 3 12H7Z" fill="#646369"/>
<path d="M16 12C16.5304 12 17.0391 12.2107 17.4142 12.5858C17.7893 12.9609 18 13.4696 18 14V18C18 18.5304 17.7893 19.0391 17.4142 19.4142C17.0391 19.7893 16.5304 20 16 20H12C11.4696 20 10.9609 19.7893 10.5858 19.4142C10.2107 19.0391 10 18.5304 10 18V14C10 13.4696 10.2107 12.9609 10.5858 12.5858C10.9609 12.2107 11.4696 12 12 12H16Z" fill="#646369"/>
<defs>
<clipPath id="clip0_1134_282">
<rect width="11" height="11" fill="white" transform="translate(10 1)"/>
</clipPath>
</defs>
</svg>
