<svg width="24" height="24" viewBox="0 0 24 24" fill="none" xmlns="http://www.w3.org/2000/svg">
<path d="M11 14H13C13.5304 14 14.0391 13.7893 14.4142 13.4142C14.7893 13.0391 15 12.5304 15 12C15 11.4696 14.7893 10.9609 14.4142 10.5858C14.0391 10.2107 13.5304 10 13 10H10C9.4 10 8.9 10.2 8.6 10.6L3 16" stroke="#3F2870" stroke-width="2" stroke-linecap="round" stroke-linejoin="round"/>
<path d="M14.45 13.3896L19.5 8.69564C20.196 7.99964 21 6.84964 21 5.74964C21.0001 5.193 20.8313 4.64942 20.5159 4.19076C20.2005 3.7321 19.7533 3.37996 19.2335 3.18089C18.7136 2.98182 18.1456 2.94519 17.6045 3.07585C17.0634 3.20651 16.5747 3.4983 16.203 3.91264C16.1772 3.9407 16.1458 3.9631 16.1108 3.97842C16.0759 3.99374 16.0382 4.00165 16 4.00165C15.9618 4.00165 15.9241 3.99374 15.8892 3.97842C15.8542 3.9631 15.8228 3.9407 15.797 3.91264C15.4253 3.4983 14.9366 3.20651 14.3955 3.07585C13.8544 2.94519 13.2864 2.98182 12.7665 3.18089C12.2467 3.37996 11.7995 3.7321 11.4841 4.19076C11.1687 4.64942 10.9999 5.193 11 5.74964C11 6.94964 11.802 7.99764 12.5 8.69564L16 11.9496" stroke="#3F2870" stroke-width="2" stroke-linecap="round" stroke-linejoin="round"/>
<path d="M2 15L8 21" stroke="#3F2870" stroke-width="2" stroke-linecap="round" stroke-linejoin="round"/>
<path d="M7 20.0003L8.6 18.6003C8.9 18.2003 9.4 18.0003 10 18.0003H14C15.1 18.0003 16.1 17.6003 16.8 16.8003L21.4 12.4003C21.7859 12.0356 22.0111 11.5326 22.0261 11.0018C22.0411 10.4711 21.8447 9.95616 21.48 9.57027C21.1153 9.18438 20.6123 8.95916 20.0816 8.94416C19.5508 8.92916 19.0359 9.1256 18.65 9.49027" stroke="#3F2870" stroke-width="2" stroke-linecap="round" stroke-linejoin="round"/>
</svg>
